<?xml version="1.0" encoding="UTF-8"?>
<!DOCTYPE svg PUBLIC "-//W3C//DTD SVG 1.1//EN" "http://www.w3.org/Graphics/SVG/1.1/DTD/svg11.dtd">
<!-- Creator: CorelDRAW X6 -->
<svg xmlns="http://www.w3.org/2000/svg" xml:space="preserve" width="100%" height="100%" version="1.1" style="shape-rendering:geometricPrecision; text-rendering:geometricPrecision; image-rendering:optimizeQuality; fill-rule:evenodd; clip-rule:evenodd"
viewBox="0 0 500 500"
 xmlns:xlink="http://www.w3.org/1999/xlink">
 <defs>
  <style type="text/css">
   <![CDATA[
    .fil3 {fill:#005792}
    .fil1 {fill:#0083DB}
    .fil2 {fill:#46B5FF}
   ]]>
  </style>
 </defs>
 <g id="Layer_x0020_1">
  <metadata id="CorelCorpID_0Corel-Layer"/>
  <path class="fil1" d="M387 28l-78 77c-10,10 -10,26 0,36l23 23 114 -114 -23 -22c-10,-10 -26,-10 -36,0zm-287 287l-78 77c-10,10 -10,26 0,36l23 23 114 -114 -23 -22c-10,-10 -26,-10 -36,0z"/>
  <path class="fil2" d="M341 173l114 -114c50,51 1,181 -109,292 -111,111 -241,160 -292,109l114 -114c23,23 46,0 109,-63 64,-64 87,-87 64,-110z"/>
  <path class="fil3" d="M455 59l-114 114 -9 -9 114 -114 9 9zm-287 287l-114 114 -9 -9 114 -114 9 9z"/>
 </g>
</svg>
